<?xml version="1.0" encoding="iso-8859-1"?>
<!-- Generator: Adobe Illustrator 16.0.0, SVG Export Plug-In . SVG Version: 6.00 Build 0)  -->
<!DOCTYPE svg PUBLIC "-//W3C//DTD SVG 1.1//EN" "http://www.w3.org/Graphics/SVG/1.1/DTD/svg11.dtd">
<svg version="1.1" id="Layer_1" xmlns="http://www.w3.org/2000/svg" xmlns:xlink="http://www.w3.org/1999/xlink" x="0px" y="0px"
	 width="600px" height="600px" viewBox="0 0 600 600" style="enable-background:new 0 0 600 600;" xml:space="preserve">
<g>
	<g>
		<g>
			<path style="fill:#FDB721;stroke:#ED1C28;stroke-width:0.5457;" d="M267.467,424.021c0,0,6.039,7.615-12.34,18.904
				c-18.38,11.29-25.994,13.391-52.776,12.34c-26.781-1.05-66.428-9.978-68.528-10.766c0,0,1.837-2.887,16.016-8.664
				c0,0-16.805,0.525-17.067-4.989c0,0,120.253-69.578,128.131-18.903C260.902,411.943,266.678,422.708,267.467,424.021z"/>
			<path style="fill:#FFD793;" d="M259.064,427.96c0,0-11.815,19.693-46.474,19.693c-34.658,0-66.166-2.627-60.652-6.304
				c5.514-3.674,53.825-40.959,80.081-32.033C258.276,418.245,259.064,422.708,259.064,427.96z"/>
			<path style="fill:#FFFAC0;" d="M248.562,430.847c0,0-1.576,4.99-21.53,8.402c-19.955,3.415-42.025,0.524-39.91-1.312
				c2.115-1.838,21.005-7.878,21.005-7.878s-24.155,3.676-17.066,0.525c7.089-3.149,23.894-6.301,24.944-6.301
				c1.05,0-30.845,2.101-21.855-0.524c8.99-2.627,41.285-9.716,49.162-6.302C251.188,420.87,250.662,427.697,248.562,430.847z"/>
		</g>
		<g>
			<path style="fill:#FDB721;stroke:#ED1C28;stroke-width:0.5457;" d="M207.865,410.631c0,0,4.988,6.038-28.882,18.643
				c-33.871,12.602-43.324,4.725-43.324,4.725s-32.032,1.313-28.356-0.787c3.676-2.101,7.352-3.675,7.352-3.675
				s-9.714-2.89-19.167-2.627c-9.452,0.263-18.642,0-21.268-1.313c-2.626-1.312-6.302-3.15-6.302-3.15s-26.519,1.575-21.004-1.576
				c5.514-3.15,47.261-18.38,47.261-18.38s-16.017-1.05-9.19-4.2c6.827-3.15,31.77-14.703,48.574-21.53
				c16.804-6.826,40.96-21.53,66.953-5.251C226.506,387.787,207.865,410.631,207.865,410.631z"/>
			<path style="fill:#FFD793;" d="M200.775,410.105c0,0-15.491,14.179-28.093,16.279c-12.604,2.102-25.995,5.776-24.944,2.102
				c1.051-3.678,3.15-7.354-1.575-6.828c-4.727,0.524-26.518,7.878-21.792,3.15c4.726-4.727,11.815-7.351,4.989-7.351
				s-63.802,2.624-51.2-2.101c12.603-4.727,46.211-8.928,40.96-9.452c-5.251-0.524-20.48-1.839-13.653-4.728
				c6.827-2.888,25.206-7.614,21.53-7.877c-3.676-0.263,8.402-11.025,25.994-17.065C170.58,370.196,223.881,361.795,200.775,410.105
				z"/>
			<path style="fill:#FFFAC0;" d="M194.736,402.229c-0.82,6.941-29.932,18.642-29.407,15.49c0.525-3.15,15.229-13.39,8.927-11.29
				c-6.302,2.101-24.418,9.715-21.793,6.302c2.626-3.415,18.379-10.241,14.178-9.716c-4.2,0.525-33.608,7.615-27.306,4.728
				s31.245-11.29,25.731-9.978c-5.514,1.313-28.619,3.938-22.317,1.576c6.301-2.365,30.457-6.304,24.68-6.304
				c-5.777,0-24.68,1.052-19.43-2.099C153.251,387.787,198.675,368.882,194.736,402.229z"/>
		</g>
	</g>
	<path d="M521.878,151.338l-28.38-49.118l-4.093-6.276c-3.466,11.434-6.904,22.867-12.825,33.292
		c-25.05-4.721-51.192-0.518-70.13,15.281c-5.703,4.803-9.25,10.725-13.645,15.828l-35.475,9.824l-13.643,4.093v0.545
		c12.252,11.025,24.176,22.95,35.2,35.203l0.275,2.183c-1.994,1.638-4.258,2.702-6.005,4.913
		c-5.812,6.303-6.331,16.509-2.729,24.014c6.658,11.788,19.102,19.81,32.746,18.555c0.764,0.792,0.9,1.828,1.365,2.729
		c0.354,2.375,4.557,4.558,1.909,6.822c-10.287-6.003-22.103-9.96-34.929-8.186c-29.497-7.286-61.043-9.632-93.598-9.551
		c-24.451-4.175-51.193-6.931-76.953-3.82c-18.883-9.005-40.987-1.229-58.669,4.912c-4.94,0.873-9.715-0.301-14.19-1.365
		c-4.939-0.327-10.861-3.083-15.281,0.273c-1.856,3.029-1.529,7.286,0,10.369c1.146,4.23,7.285,4.477,7.095,9.005
		c2.265,3.083,5.866,4.066,9.277,4.912c4.612,0.955,8.924-0.545,13.371-0.818c2.047,2.21,4.039,4.421,4.367,7.368
		c-0.027,1.528-1.283,3.057-2.729,3.546c-6.74-0.38-12.797,0.928-17.192,6.277c-2.7,3.384-2.892,8.296-1.364,12.28
		c3.139,4.175,9.469,3.465,14.189,2.729c9.743-2.674,16.537,3.411,25.106,4.366c10.424-0.955,19.266-5.676,28.38-9.824
		c22.458,6.059,47.589,6.495,72.313,6.278l35.747,1.09l38.749,0.818c-4.011,2.646-8.377,5.648-12.553,8.46
		c-12.033-0.409-21.803,6.794-30.016,15.826l-11.532,4.194c-1.992,0.703-3.694,1.348-5.093,1.896
		c-0.162-0.015-0.323-0.037-0.485-0.065c-2.146-1.283-4.228-2.142-6.076-2.715c-2.298-0.807-3.235-1.019-5.195-1.126
		c-15.608-1.773-30.371,4.23-38.202,18.01c-7.887,2.62-15.391,6.058-22.922,9.552c-9.605,5.566-24.259,7.558-27.015,21.011
		c-3.22,10.342,1.2,20.494,9.278,27.289c8.705,8.131,21.831,4.012,32.746,3.547l0.546,0.546c-0.737,1.911,0.191,3.82,0.273,5.73
		c1.637,6.741,8.95,12.58,15.554,13.643c18.256-1.308,36.266-3.137,53.757-6.273c4.831,0.599,10.015,1.172,15.009,0.545
		c12.063-1.364,24.642-9.606,28.106-21.83c1.256-1.61,3.766-1.311,5.457-2.456c8.324-0.491,16.32-1.83,23.469-5.185
		c5.213-4.369,12.144-4.586,18.01-7.367l0.273,0.271c-1.01,2.646-2.401,5.104-3.001,7.913c-1.884,2.512-5.323,4.146-7.368,6.823
		c-2.21,4.527-7.914,7.64-9.277,12.552c-0.056,2.211-1.311,5.566,1.091,7.095c2.318,1.254,4.994,0.081,7.095-0.818
		c0.929,0.708,1.282,1.638,1.909,2.457c0.168,1.933,0.222,3.917,0.495,5.813c0.044,0.341,0.105,0.702,0.185,1.084
		c0.199,0.994,0.478,1.956,0.89,2.865c0.617,1.494,1.539,3.133,2.899,4.841c0.351,2.745-0.896,5.948,0.17,8.591
		c1.202,2.566,3.849,3.956,6.549,4.094c3.877,4.338-0.053,11.897,5.46,15.555c2.399,2.128,5.813,2.565,9.004,1.91
		c1.855-1.011,2.784-2.895,2.729-4.912c2.512-2.675,2.021-6.576,2.455-10.096c6.905-6.442,10.262-14.847,9.825-24.561
		c13.699-14.081,22.949-30.481,30.836-47.208c10.778-16.591,21.257-33.319,25.377-52.666c3.493-11.953-1.474-23.852-10.915-31.11
		c0.845-0.627,1.802-0.98,2.729-1.362c18.338,3.574,38.478,1.691,52.939-9.004c7.912-5.788,14.08-13.918,11.733-23.742
		c9.77-10.887,17.41-22.649,21.831-35.748C558.281,202.477,545.291,172.651,521.878,151.338z"/>
	<g>
		<g>
			<path style="fill:#FDDBCA;" d="M402.107,221.015c-3.643-3.081-10.085-4.481-12.887-4.481c-2.801,0-5.883,1.121-3.361-3.083
				c0.932-1.553,3.397-2.339,6.134-2.717c-0.094-0.003-0.185-0.011-0.279-0.014c-2.437-0.009-4.887,0.302-7.235,0.951
				c-2.586,1.625-4.896,3.706-6.183,5.422c-2.521,3.362-0.841,4.762,3.082,5.602c3.92,0.841,8.684,3.083,12.045,5.604
				c3.361,2.521,8.685,11.205,9.524,14.287c0.84,3.081,2.52,4.763,4.481,1.401c1.963-3.362,2.521-8.404,1.963-16.528
				c-0.025-0.359-0.065-0.714-0.113-1.068c-0.39,0.31-0.82,0.508-1.289,0.508C405.748,226.898,405.748,224.096,402.107,221.015z"/>
			<path style="fill:#FEE7DA;" d="M391.993,210.734c-2.736,0.377-5.202,1.164-6.134,2.717c-2.521,4.203,0.561,3.083,3.361,3.083
				c2.802,0,9.244,1.401,12.887,4.481c3.641,3.082,3.641,5.884,5.882,5.884c0.469,0,0.899-0.198,1.289-0.508
				c-0.497-3.781-2.181-7.254-3.761-9.803C401.766,213.2,397.101,210.937,391.993,210.734z"/>
		</g>
		<path style="fill:#F1C4B0;" d="M434.323,283.765c-15.689-17.648-22.13-41.18-10.646-58.549c0,0-4.48-17.648,4.764-35.576
			c7.632-14.803,19.658-30.559,47.424-40.965c-28.347,2.321-52.563,20.132-67.23,44.854c4.557,1.31,9.47,1.829,14.188,2.729
			l0.818,0.82c-6.438,6.03-11.759,12.988-15.279,20.465c0.845,1.418,1.8,2.756,2.182,4.366l-0.272,0.272
			c-1.336-2.056-2.938-3.955-4.753-5.593c1.729,2.788,3.584,6.678,3.874,10.871c0.559,8.124,0,13.166-1.963,16.528
			c-1.962,3.362-3.642,1.68-4.481-1.401c-0.84-3.082-6.163-11.766-9.524-14.287c-3.361-2.521-8.125-4.762-12.045-5.604
			c-3.923-0.84-5.603-2.24-3.082-5.602c1.287-1.716,3.597-3.796,6.183-5.422c-5.065,1.398-9.664,4.374-12.684,9.145
			c-4.447,6.795-2.482,17.028,1.909,23.196c8.543,11.024,21.259,17.519,35.202,13.371l0.271,0.272
			c-1.336,1.01-2.918,1.447-4.366,2.183c9.267,18.367,27.342,29.467,45.162,36.948C444.672,293.482,439.163,289.211,434.323,283.765
			z"/>
		<g>
			<path style="fill:#FDDBCA;" d="M520.886,266.678c0,0,14.846-9.525,21.29-27.735c5.918-16.723,7.342-46.916-10.045-61.929
				c-3.021,1.403-6.036,2.812-9.16,3.963c-5.757-9.905-12.39-19.456-18.556-29.199c-4.558-1.827-9.825-1.992-14.736-3.001
				c-4.695-0.45-9.306-0.47-13.814-0.102c-27.766,10.407-39.792,26.163-47.424,40.965c-9.244,17.928-4.764,35.576-4.764,35.576
				c-11.483,17.369-5.043,40.901,10.646,58.549c4.84,5.446,10.349,9.717,15.65,13.022c2.701,1.134,5.395,2.185,8.052,3.165
				c4.898,1.272,9.969,2.133,15.064,2.516c9.019-0.623,19.917-2.391,27.906-6.936C517.242,286.286,525.926,277.882,520.886,266.678z
				"/>
			<path style="fill:#FEE7DA;" d="M551.077,211.266c-1.446-13.48-4.966-26.36-14.463-36.294c-1.506,0.659-2.993,1.35-4.483,2.042
				c17.387,15.014,15.963,45.206,10.045,61.929c-6.444,18.21-21.29,27.735-21.29,27.735c5.04,11.205-3.644,19.608-19.89,28.854
				c-7.989,4.545-18.888,6.313-27.906,6.936c17.641,1.326,35.606-3.096,47.971-16.159c3.629-4.857,7.996-10.806,4.639-17.191
				C540.708,252.526,551.621,234.27,551.077,211.266z"/>
		</g>
		<path style="fill:#F1C4B0;" d="M490.416,195.796c-0.7-2.802-1.554-1.555-2.138,1.553c-0.583,3.109-1.165,6.605-1.553,8.354
			c-0.389,1.748-1.555,2.72,1.748,2.72c3.301,0,4.274-1.554,4.08-4.857C492.357,200.264,490.61,196.573,490.416,195.796z"/>
		<path style="fill:#F1C4B0;" d="M507.511,198.127c0,0,0.971,4.662-1.165,6.605c-2.137,1.942-2.137,2.331-6.994,2.331
			C499.352,207.063,505.762,202.012,507.511,198.127z"/>
		<path style="fill:#F1C4B0;" d="M526.354,219.885c0,0-3.884,3.303-4.078,2.331s-0.778-2.331-0.583-3.303
			c0.194-0.971,10.297-9.713,12.239-2.914C535.873,222.799,527.52,218.137,526.354,219.885z"/>
		<path style="fill:#F1C4B0;" d="M456.809,263.982l-2.331,0.194c0,0,0.193-4.663,4.274-4.663c4.079,0,5.439-0.971,5.245,0.971
			L456.809,263.982z"/>
		<path style="fill:#F1C4B0;" d="M465.939,282.049c-1.106-0.369-2.72,0.194-2.137,1.748c0.58,1.555,1.942,1.943,3.301,1.165
			C468.464,284.186,467.104,282.438,465.939,282.049z"/>
		<path style="fill:#FEE7DA;" d="M458.363,234.065c-2.513-0.264-3.302,1.166-2.721,3.108c0.583,1.943,1.749,2.331,3.303,1.943
			C460.5,238.728,462.054,234.454,458.363,234.065z"/>
		<ellipse style="fill:#FEE7DA;" cx="514.214" cy="268.256" rx="2.234" ry="2.136"/>
	</g>
	<path style="fill:#FFFFFF;" d="M466.758,134.966c-15.2,2.346-30.591,4.202-44.207,10.37c-1.364,0.354-2.729,1.555-4.094,1.092
		c0.9-1.993,3.029-3.302,4.639-4.639c9.769-5.758,20.877-8.296,32.745-9.005C459.526,133.384,464.11,132.429,466.758,134.966z"/>
	<path style="fill:#FFFFFF;" d="M480.674,136.058c-1.937,1.637-4.721,0.41-6.823,0c-0.189-0.272-0.653-0.437-0.544-0.819
		C475.436,133.875,479.146,134.147,480.674,136.058z"/>
	<path d="M474.124,172.078l-0.273,1.91L474.124,172.078z"/>
	<g>
		<path d="M488.127,191.97l0.733-0.245C488.588,191.784,488.347,191.868,488.127,191.97z"/>
		<path d="M489.405,183.812c2.921,5.104,4.175,10.916,6.276,16.373c-0.872-10.369-6.221-18.883-11.188-27.561
			c-3.328-4.775-8.131-9.414-13.645-10.642c-11.434-1.938-20.385,4.284-27.833,12.28c5.865-4.666,12.088-9.66,19.374-11.461
			c9.251-1.992,16.892,3.384,21.829,10.916c-0.189,1.12-0.599,2.129-1.363,3.001c-2.837-1.146-5.648-2.265-9.006-2.183
			c-2.81,1.091-5.893,1.61-8.46,3.274c-0.872-1.009-0.488-2.537-1.363-3.547c0.354,1.174,0.736,2.374,1.092,3.547
			c-2.211,1.61-4.747,3.575-6.276,5.731c-9.332,9.878-12.879,26.169-6.822,38.476c5.022,2.347,9.716,5.512,15.281,6.549
			c11.599-5.157,16.128-17.546,18.557-28.652c0.553-2.665-0.305-6.741,2.269-7.942l-0.904,0.301
			c-1.091-1.856-0.136-4.53-0.819-6.549C487.251,184.74,488.369,184.331,489.405,183.812z M483.129,176.99
			c0.793-0.519,0.355-2.074,1.64-1.91c1.719,2.62,2.974,5.43,4.364,8.186c-0.572,1.118-1.745,0.791-2.457,1.637
			C485.913,182.093,485.121,179.282,483.129,176.99z"/>
	</g>
	<path style="fill:#FFFFFF;" d="M473.578,177.536c-10.014,4.694-17.601,15.554-16.918,26.743c2.456-0.464,4.748-1.31,7.367-1.365
		l-5.73,6.004c0.438,2.674,2.948,4.529,5.185,5.73c4.013,1.009,8.842,0.765,12.006-1.91c4.75-3.493,7.697-8.432,9.552-13.098
		c-2.372,10.861-6.93,22.977-18.01,28.107c-4.994-1.664-9.632-4.203-14.462-6.276c-5.212-11.516-2.839-26.688,6.002-35.748
		C462.964,181.547,467.848,178.518,473.578,177.536z"/>
	<path style="fill:#FFFFFF;" d="M476.854,181.628c-0.463,3.139-3.52,5.212-5.73,7.641c-2.975,2.374-5.813,5.076-9.277,6.276
		c-1.556-2.156-0.573-4.257,0-6.549c2.646-3.93,6.685-7.996,10.913-9.824C474.479,179.119,476.008,180.101,476.854,181.628z"/>
	<path d="M500.321,206.461h-0.272c5.675-3.711,8.979-9.332,9.004-15.827C510.036,197.511,506.134,203.351,500.321,206.461z"/>
	<path d="M543.709,208.099c2.512,4.257,2.129,10.342,1.364,15.281c0.028-6.085,0.573-12.389-3.819-16.646
		c-2.211-0.519-4.313,0.791-6.277,1.637c-4.775,3.247-9.605,6.413-15.008,8.187v-0.818l5.186-6.822
		c-0.602,1.937-1.828,3.629-2.729,5.457l0.272,0.273c5.785-2.429,10.505-7.45,16.646-9.005
		C541.117,205.669,542.863,206.38,543.709,208.099z"/>
	<path d="M532.793,214.374c1.721-0.327,3.249,0.601,4.64,0.273c0.084,0.246-0.108,0.382-0.273,0.546
		c1.992,0.845,1.556,4.011,3.549,3.547c-1.828,1.556,0.054,3.657-0.547,5.731c0.438,0.873,0.847,0.164,1.363,0l-1.363,1.364
		c-1.827,12.334-6.822,23.331-15.007,33.019c-1.965,1.665-3.82,3.602-6.277,4.093c-3.984-1.473-7.286-4.53-10.915-6.822
		c5.376-12.907,9.496-26.552,18.556-37.658h-0.273v-2.184h0.273c-0.056,0.574,0.055,1.038,0.546,1.366
		c1.446-0.027,1.419-1.856,2.729-2.184c0.818-0.463,1.882-0.327,2.454-1.364h-0.272V211.1h0.272
		C532.438,212.191,531.784,213.61,532.793,214.374z"/>
	<path style="fill:#FFFFFF;" d="M534.431,218.195c-2.101,3.848-6.192,7.613-9.824,10.096c-0.463-0.437-1.309-1.2-1.092-2.183
		c0.247-3.357,2.348-6.167,5.186-8.187C530.42,217.54,533.041,216.094,534.431,218.195z"/>
	<rect x="541.524" y="217.512" width="0.412" height="0.41"/>
	<path d="M397.173,232.112c0.326,1.556,1.8,2.621,1.637,4.367c-0.982-1.611-2.619-3.902-4.64-4.094
		c-1.719-0.054-2.892,1.801-4.093,2.457c-0.081,0.6,0.081-1.038,0.547-1.365c1.309-1.665,3.792-1.337,5.458-1.365
		c-0.654-1.856-2.185-2.237-3.55-3.547c-1.662-1.418-4.527-0.764-6.549-0.546C390.242,226.491,394.854,227.91,397.173,232.112z"/>
	<path style="fill:#FFFFFF;" d="M521.878,236.751c-1.336,3.575-7.529,5.84-4.911,10.369c0.438,1.529,1.582,2.948,3.002,3.82
		c2.919,1.174,6.331,0.329,8.731-1.364c2.129-1.992,3.93-4.066,5.458-6.276c-3.575,6.904-7.478,15.117-15.281,18.829
		c-3.548-1.747-6.876-4.01-10.096-6.55c2.702-6.084,5.048-12.524,7.912-18.282c-0.327,0.437-0.244,1.064-0.272,1.637l0.272,0.274
		C518.413,238.388,520.05,237.27,521.878,236.751z"/>
	<rect x="399.082" y="236.614" width="0.409" height="0.41"/>
	<path d="M500.321,250.667c2.184,0.492,4.447,1.911,5.457,4.094c1.118,3.028,0.492,6.658-1.638,9.005
		c-2.072,1.747-4.802,2.755-7.641,1.909c-2.755-0.709-6.302-2.511-6.821-5.73c-0.464-2.483-0.054-5.321,1.364-7.367
		c1.637-4.449,8.897,0.082,7.913-6.004l0.546-0.818C499.611,247.448,496.691,250.45,500.321,250.667z"/>
	<rect x="409.725" y="256.808" width="0.409" height="0.409"/>
	<rect x="409.178" y="257.081" width="0.411" height="0.409"/>
	<path d="M458.569,263.494c8.679,1.691,17.384,3.875,23.469,11.188c0.629,0.982,0.792,2.156,1.091,3.275
		c-5.32-10.288-16.754-12.771-27.288-13.917c2.157-1.201,4.805-2.484,7.368-3.274C461.79,261.966,459.824,262.457,458.569,263.494z"
		/>
	<path style="fill:#F1C4B0;" d="M140.938,273.316v0.274c-3.903-0.055-7.122,2.373-11.188,1.091
		c-3.247-1.201-8.022-1.609-9.005-5.458l0.273-0.273C127.103,271.762,133.979,272.607,140.938,273.316z"/>
	<path d="M467.302,282.596l-3.274-1.093C465.284,281.422,466.784,281.449,467.302,282.596z"/>
	<path style="fill:#FFFFFF;" d="M314.762,340.993c-0.654,1.964-0.546,3.219-0.546,5.457c0.02,1.093,0.235,2.091,0.273,2.455
		c-5.512,1.146-10.424,3.738-15.827,5.185c-1.911-1.173,0.108-2.757,0.272-4.093c3.903-5.076,9.17-9.088,15.554-9.277
		L314.762,340.993z"/>
	<path style="fill:#F1C4B0;" d="M369.885,414.125c-1.092,3.899-0.546,8.483,1.637,11.732c-1.665,1.172-4.012,2.373-6.005,1.092
		c-1.172-0.71-1.143-2.374-1.091-3.82c0-3.683,2.865-6.412,4.913-9.004H369.885z"/>
	<path style="fill:#F1C4B0;" d="M379.707,445.505c2.703,3.108,5.377,6.194,5.457,10.369c-2.373-0.11-4.693-1.583-5.729-3.819
		c-1.311-2.02,0.218-4.204-0.271-6.55H379.707z"/>
	<g>
		<path style="fill:#FAC1B5;" d="M230.169,356.273l-0.273-0.271c-8.104,2.864-15.881,6.574-23.741,10.096
			c-6.331,3.329-13.29,5.074-18.829,10.369c-1.472,1.525-2.716,3.275-3.698,5.163c13.8-8.435,36.021-17.956,45.193-20.96
			C229.183,359.188,229.631,357.723,230.169,356.273z"/>
		<path style="fill:#ED1847;" d="M227.798,367.183c0.165-2.181,0.498-4.36,1.024-6.513c-9.173,3.004-31.393,12.525-45.193,20.96
			c-2.461,4.724-3.28,10.315-1.924,15.479c1.229-4.021,3.333-8.815,6.886-12.367C188.591,384.742,200.878,377.779,227.798,367.183z"
			/>
		<path style="fill:#9F0032;" d="M239.993,400.48c-8.5-8.67-13.12-21.036-12.195-33.298c-26.92,10.597-39.207,17.56-39.207,17.56
			c-3.553,3.552-5.657,8.346-6.886,12.367c0.253,0.957,0.577,1.903,0.983,2.824c3.847,8.021,11.161,15.771,20.466,16.373
			c17.437-1.638,35.038-2.865,51.302-7.368C248.971,407.711,244.194,404.218,239.993,400.48z"/>
	</g>
	<g>
		<path style="fill:#ED1847;" d="M250.14,361.948c0.646-1.895,1.539-3.647,2.679-5.13c4.05-7.561,11.21-10.124,18.241-12.739
			c-3.18-2.001-7.157-3.197-11.658-3.055c-10.065,0.32-13.875,2.969-26.402,12.451c-1.671,2.925-2.81,6.342-3.429,9.941
			C239.355,356.767,246.542,359.507,250.14,361.948z"/>
		<path style="fill:#9F0032;" d="M293.478,393.384c-6.74,1.01-13.289,2.401-20.192,3.003c-9.524-0.246-18.065-8.106-22.104-16.372
			c-2.676-5.064-3.021-12.252-1.042-18.066c-3.598-2.441-10.785-5.182-20.568,1.469c-1.291,7.511-0.324,15.81,2.781,22.055
			c2.974,11.487,14.326,20.931,25.65,23.194c12.853,1.965,27.233,0.436,34.384-11.461
			C292.741,395.923,293.942,394.668,293.478,393.384z"/>
		<path style="fill:#FAC1B5;" d="M271.06,344.079c2.538-0.943,5.059-1.894,7.41-3.086v-0.274c-1.283-1.038-2.92-1.284-4.366-1.91
			c-15.363-4.64-31.327,0.846-40.66,13.916c-0.152,0.246-0.299,0.498-0.443,0.751c12.526-9.482,16.337-12.131,26.402-12.451
			C263.903,340.882,267.879,342.078,271.06,344.079z"/>
	</g>
	<g>
		<g>
			<path style="fill:#FEE7DA;" d="M295.387,336.345h-0.272l-26.743,10.097l-7.914,3.82c-1.377,1.113-2.631,2.306-3.751,3.569
				c12.689-5.12,30.17-11.595,36.098-13.776C293.583,338.742,294.442,337.496,295.387,336.345z"/>
			<path style="fill:#F1C4B0;" d="M291.294,375.912c-5.014-9.671-4.742-22.987,0.065-33.143c-7.814,3.77-32.963,16.718-39.96,20.325
				c-1.048,3.381-1.341,7.038-0.764,10.907c2.074,9.307,10.206,18.938,19.92,20.739c10.069,0.356,19.456-2.536,29.198-3.82
				l0.545-0.544C296.479,386.119,293.478,381.07,291.294,375.912z"/>
			<path style="fill:#FDDBCA;" d="M292.806,340.055c-5.928,2.182-23.409,8.656-36.098,13.776c-2.45,2.765-4.259,5.875-5.308,9.264
				c6.997-3.607,32.146-16.556,39.96-20.325C291.802,341.836,292.287,340.932,292.806,340.055z"/>
		</g>
		<g>
			<path style="fill:#FEE7DA;" d="M333.367,405.352l-26.62,8.329c1.702,0.36,3.475,0.439,5.287,0.163
				c8.432-2.32,16.972-5.048,24.832-8.186C335.69,405.579,334.524,405.478,333.367,405.352z"/>
			<path style="fill:#F1C4B0;" d="M301.938,392.014c-2.266,0.354-4.722,0.328-6.822,1.092v1.092
				c-0.437,3.027-4.722,5.813-2.183,8.731c1.813,3.052,4.421,5.961,7.528,8.031l24.418-7.036
				C316.411,401.934,308.646,398.236,301.938,392.014z"/>
			<path style="fill:#FDDBCA;" d="M324.878,403.924l-24.418,7.036c1.926,1.284,4.046,2.247,6.287,2.721l26.62-8.329
				C330.471,405.04,327.637,404.571,324.878,403.924z"/>
		</g>
		<g>
			<path style="fill:#ED1847;" d="M320.664,412.61l-0.444,0.142c-3.874,1.146-7.286,3.329-12.007,2.456
				c-2.811-0.214-5.439-1.17-7.808-2.626c-0.773,2.229-2.27,4.685-5.015,7.021c-3.582,3.05-10.801,3.474-14.039,3.504
				c4.607,3.182,10.056,4.957,15.801,5.592c4.549-0.73,10.577-2.619,16.181-5.785C318.681,419.89,320.226,415.319,320.664,412.61z"
				/>
			<path style="fill:#9F0032;" d="M300.405,412.582c-4.001-2.459-7.257-6.342-9.383-10.474c-1.01-0.381-0.956,0.602-1.365,1.093
				c-4.912,4.011-10.805,6.768-17.464,7.094c-0.955,1.121,0.546,2.539,0.818,3.82c2.226,3.776,5.073,6.736,8.341,8.992
				c3.238-0.03,10.457-0.454,14.039-3.504C298.135,417.267,299.632,414.811,300.405,412.582z"/>
			<path style="fill:#FAC1B5;" d="M334.683,408.113l-14.019,4.497c-0.438,2.709-1.983,7.279-7.33,10.304
				c-5.604,3.166-11.632,5.055-16.181,5.785c2.819,0.312,5.708,0.354,8.605,0.152c12.115-1.092,25.459-7.914,29.198-20.467
				L334.683,408.113z"/>
		</g>
		<g>
			<path style="fill:#9F0032;" d="M270.01,410.842c-4.721,0.137-9.25-0.136-13.644-0.818c-8.378,2.046-16.947,3.684-25.652,4.912
				c-1.991,0.354-4.174,0.327-6.002,1.092c-0.803,6.262,2.887,11.123,7.204,14.938c7.044-1.106,30.815-5.103,44.253-10.608
				C273.405,417.645,271.196,414.436,270.01,410.842z"/>
			<path style="fill:#ED1847;" d="M276.169,420.357c-13.438,5.506-37.209,9.502-44.253,10.608c0.235,0.208,0.472,0.414,0.709,0.614
				c1.17,1.154,2.464,1.908,3.842,2.383c28.051-2.474,44.997-7.028,47.73-7.8C281.306,424.639,278.534,422.679,276.169,420.357z"/>
			<path style="fill:#FAC1B5;" d="M284.197,426.163c-2.733,0.771-19.679,5.326-47.73,7.8c5.632,1.938,12.682-0.854,18.536-0.746
				l34.109-4.094l0.819-0.543C288.023,427.974,286.084,427.159,284.197,426.163z"/>
		</g>
	</g>
	<g>
		<path style="fill:#007538;" d="M337.139,313.977c-9.905,4.666-19.02,13.043-21.285,24.015l0.274,0.271
			c-0.088,0.185-0.165,0.37-0.238,0.555c3.787-2.554,11.276-7.408,17.798-10.458C334.104,323.314,335.481,318.511,337.139,313.977z"
			/>
		<g>
			<path style="fill:#41AD49;" d="M368.313,391.249c1.077,0.239,2.104,0.466,3.085,0.681c3.703-1.348,8.103-3.162,13.373-5.578
				c-3.587-0.622-7.082-1.463-10.492-2.525c-3.584,1.457-8.59,3.386-13.259,5.253C363.314,389.946,365.747,390.678,368.313,391.249z
				"/>
			<path style="fill:#41AD49;" d="M351.709,384.362c3.261-1.253,7.396-2.761,12.627-4.57c-0.298-0.153-0.599-0.312-0.896-0.471
				c-3.476,1.363-8.044,3.07-12.249,4.69C351.362,384.129,351.534,384.247,351.709,384.362z"/>
			<path style="fill:#41AD49;" d="M336.209,360.333c0.295,6.36,3.341,12.911,8.714,18.44c3.654-1.515,7.489-3.152,10.523-4.556
				c-8.408-6.328-15.236-14.823-18.935-24.562C336.086,351.495,335.932,354.312,336.209,360.333z"/>
			<path style="fill:#007538;" d="M368.313,391.249c-2.565-0.571-4.998-1.303-7.293-2.17c-3.052,1.224-5.962,2.419-8.234,3.437
				c2.695,0.978,5.46,1.778,8.291,2.418c2.682-0.508,6.035-1.442,10.321-3.004C370.417,391.715,369.39,391.488,368.313,391.249z"/>
			<path style="fill:#007538;" d="M351.191,384.012c-3.459,1.334-6.668,2.609-8.817,3.588c0.229,0.137,0.457,0.27,0.687,0.401
				c1.798-0.876,4.527-2.055,8.648-3.639C351.534,384.247,351.362,384.129,351.191,384.012z"/>
			<path style="fill:#007538;" d="M336.209,360.333c-0.277-6.021-0.123-8.838,0.303-10.677c-1.432-3.775-2.395-7.737-2.798-11.833
				c-4.109,2.294-12.822,7.24-18.479,11.066c0.635,5.836,2.715,11.46,5.256,16.661c3.719,6.443,8.723,12.528,14.668,17.175
				c2.307-0.916,5.937-2.367,9.764-3.952C339.55,373.244,336.504,366.693,336.209,360.333z"/>
			<g>
				<path style="fill:#FFFFFF;" d="M384.771,386.352c-5.271,2.416-9.67,4.23-13.373,5.578c-4.286,1.562-7.64,2.496-10.321,3.004
					c1.017,0.231,2.044,0.443,3.077,0.635l0.272-0.272c0.93,1.091,2.703,0.137,3.82,0.815c0.301-0.652,0.711,0.057,1.093,0
					c3.153-0.698,6.271-1.568,9.325-2.592c5.028-1.68,9.88-3.762,14.416-6.138C390.259,387.167,387.489,386.821,384.771,386.352z"/>
				<path style="fill:#FFFFFF;" d="M333.688,328.359c-6.521,3.05-14.011,7.904-17.798,10.458c-0.931,2.335-0.904,4.582-0.854,7.086
					c0.02,1,0.092,1.995,0.2,2.986c5.656-3.826,14.369-8.772,18.479-11.066c-0.048-0.489-0.092-0.978-0.123-1.471l0.064-0.238
					C333.303,333.483,333.48,330.874,333.688,328.359z"/>
				<path style="fill:#FFFFFF;" d="M372.612,383.287c-2.822-0.94-5.592-2.117-8.276-3.495c-5.231,1.81-9.366,3.317-12.627,4.57
					c-4.121,1.584-6.851,2.763-8.648,3.639c3.118,1.801,6.364,3.297,9.725,4.515c2.272-1.018,5.183-2.213,8.234-3.437
					c4.669-1.867,9.675-3.796,13.259-5.253C373.722,383.651,373.167,383.474,372.612,383.287z"/>
				<path style="fill:#FFFFFF;" d="M363.44,379.321c-2.78-1.487-5.458-3.196-7.994-5.104c-3.034,1.403-6.869,3.041-10.523,4.556
					c-3.827,1.585-7.457,3.036-9.764,3.952c1.256,0.981,2.553,1.903,3.889,2.746c1.091,0.751,2.202,1.459,3.326,2.128
					c2.149-0.979,5.358-2.254,8.817-3.588C355.396,382.392,359.965,380.685,363.44,379.321z"/>
			</g>
		</g>
	</g>
	<g>
		<path style="fill:#F1C4B0;" d="M387.893,464.061c0.302,1.692,0.41,3.465,1.365,4.913c1.242,2.324,3.398,3.948,5.873,4.464
			c-0.008-1.302-0.056-2.261-0.127-2.96C391.825,469.759,389.716,466.301,387.893,464.061z"/>
		<path style="fill:#FEE7DA;" d="M401.266,469.791c-1.337,1.2-3.384,0.684-5.184,0.819c-0.373-0.009-0.731-0.056-1.078-0.133
			c0.071,0.699,0.119,1.658,0.127,2.96c0.575,0.12,1.168,0.179,1.77,0.174c1.61-0.054,3.083-0.408,4.091-1.909
			C401.074,471.074,402.002,470.418,401.266,469.791z"/>
	</g>
	<g>
		<path style="fill:#FEE7DA;" d="M466.338,319.018c-0.889,0.665,0.669,4.671-0.223,10.012c-0.889,5.342-3.337,14.465-10.012,29.597
			c-6.676,15.131-8.679,18.246-15.132,28.037c-6.453,9.792-12.238,16.468-12.238,16.468s-2.005,3.561-6.676,12.906
			c-4.673,9.346-13.575,17.801-13.575,17.801c-0.445,11.794-3.559,13.796-3.559,13.796s-1.114-1.556-2.894-1.112
			c-1.781,0.446-0.444,5.563-0.668,9.568c-0.224,4.008,0.668,6.455-2.226,9.348c-1.663,1.661-3.909,1.779-5.522,1.582
			c0.296,0.777,0.63,1.459,0.979,2.045c1.063,0.497,2.222,0.779,3.483,0.727c1.583-0.765,3.575-0.491,4.639-2.455
			c2.538-5.432,0.602-12.689,2.729-18.284c0.655,2.565-0.928,5.458,0,7.914c1.475-1.256,2.375-2.729,3.548-4.094
			c3.193-5.047,5.129-11.188,4.638-17.192c-0.381-0.053-0.789,0.657-1.09,0c14.218-14.843,24.367-31.353,32.199-48.844
			c12.362-17.409,21.805-36.048,26.196-56.76c0.616-3.971,0.246-7.822-0.92-11.423C468.262,318.283,466.884,318.608,466.338,319.018
			z"/>
		<path style="fill:#FEE7DA;" d="M448.315,337.263c-6.454,8.679-24.033,26.703-36.273,34.493
			c-8.625,5.488-17.251,10.422-25.175,14.105c2.71,0.375,5.452,0.609,8.208,0.701c12.907-6.275,24.968-14.572,36.565-24.014
			c10.915-11.57,29.445-21.776,27.014-39.842l0.211-0.207c-0.098-0.239-0.203-0.441-0.314-0.591
			C457.883,321.02,454.769,328.585,448.315,337.263z"/>
		<g>
			<path style="fill:#F1C4B0;" d="M392.682,456.313c0,0-4.449-3.338-2.669-13.129c1.78-9.79,6.009-14.02,9.124-19.36
				c3.116-5.339,5.34-11.57,5.34-11.57s1.559-5.785,10.683-17.802c8.404-11.072,22.854-32.341,26.99-39.621
				c-15.424,14.983-33.49,27.224-51.987,35.552c-6.958,1.036-7.694,8.978-9.823,14.19l-0.547-0.546
				c-3.928,2.347-7.856,5.894-9.003,10.37c-1.503,5.647,1.092,10.313,4.092,14.462c-0.272,5.403,1.092,10.123,4.093,14.19
				c7.996,5.428,6.686,15.253,11.188,22.376c1.248,1.466,2.715,2.837,4.431,3.639C393.142,466.616,391.935,462.624,392.682,456.313z
				"/>
			<path style="fill:#F1C4B0;" d="M406.035,297.876c6.229,12.016,10.903,20.472,23.587,23.143
				c12.684,2.669,22.92-3.115,32.934-4.896c2.362-0.417,4.496-0.439,6.385-0.23c-1.709-3.767-4.306-7.193-7.556-10.103
				c-2.839-3.848-5.348,1.392-8.188,1.638l-0.272-0.273c1.855-2.128,4.857-3.356,6.822-5.185
				c-19.13-6.085-37.849-16.672-51.302-33.02c-0.627,1.911-0.873,3.984-1.91,5.731c-1.418-1.282,0.465-3.166-0.547-4.365
				c-10.988-6.774-24.904-10.364-38.404-7.677C390.431,267.336,399.868,285.984,406.035,297.876z"/>
			<g>
				<path style="fill:none;" d="M112.087,261.164c-0.003-0.002-0.006-0.003-0.006-0.003S112.085,261.163,112.087,261.164z"/>
				<path style="fill:#F1C4B0;" d="M140.973,271.675c-1.267-1.363-2.775-2.322-4.191-2.728c-3.116-0.889-2.448,0.668-10.904-2.002
					c-4.484-1.415-8.092-2.957-10.492-4.093C121.144,270.097,131.808,270.744,140.973,271.675z"/>
				<path style="fill:#F1C4B0;" d="M365.759,313.676c7.12-3.56,7.342-4.228,7.342-8.455c0-4.229,0.669-9.792-3.781-9.792
					c-4.451,0-16.69,1.114-35.826,1.558c-19.138,0.445-47.175-0.223-59.415-1.335s-15.131-1.78-15.577-2.671
					c0,0-18.024,1.781-35.159,0.445c-17.135-1.334-29.596-5.786-35.604-6.23c0,0-8.011,5.564-14.688,8.678
					c-6.675,3.116-19.359,1.78-25.145,0.891c-5.786-0.891-6.007-2.226-10.013,0c-2.526,1.403-7.439,3.866-11.785,4.546
					c0.117,0.876,0.352,1.74,0.723,2.569c3.384,4.312,9.632,2.102,14.463,1.91c9.714-2.538,15.5,4.311,24.013,4.639
					c9.223-1.445,17.438-5.376,25.65-9.277c-0.463-0.355-1.31-0.328-1.364-1.091l0.272-0.273c14.873,3.9,30.591,5.785,46.663,6.821
					l27.834,0.273l34.383,1.093l52.666,0.543l7.368,0.547c-1.011,0.191-1.828,0.763-3.001,0.546
					c-5.376,1.31-12.608-1.855-16.647,2.729c-4.906,10.454-5.773,24.882-1.838,36.272c1.258-4.759,3.558-10.182,7.769-16.021
					C351.963,323.021,358.638,317.235,365.759,313.676z"/>
			</g>
			<g>
				<path style="fill:#FEE7DA;" d="M118.979,254.262c6.083,0.894,17.491,3.083,26.354-1.416c-0.527,0.184-1.055,0.367-1.582,0.55
					c-9.879,1.829-18.938-3.329-28.652-1.91c-1.378,1.047-2.271,2.688-2.45,4.465C114.141,254.708,116.199,253.854,118.979,254.262z
					"/>
				<path style="fill:#FDDBCA;" d="M466.338,319.018c0.546-0.409,1.924-0.734,3.677-0.364c-0.306-0.938-0.664-1.86-1.074-2.761
					c-1.889-0.209-4.022-0.187-6.385,0.23c-10.014,1.781-20.25,7.565-32.934,4.896c-12.684-2.671-17.357-11.127-23.587-23.143
					c-6.167-11.893-15.604-30.54-38.451-35.237c-0.479,0.095-0.958,0.197-1.436,0.308l-0.272-0.272l1.91-1.365
					c-19.975-5.184-41.858-6.685-63.034-8.186l-27.29-0.545c-18.828-2.511-37.548-5.294-57.577-4.912
					c-7.614-0.055-15.091,1.146-22.377,1.091l0.818-0.818c-3.875-1.91-8.568-3.001-13.37-3.275
					c-14.168-0.34-27.055,3.819-39.624,8.182c-8.863,4.499-20.27,2.31-26.354,1.416c-2.78-0.409-4.838,0.446-6.33,1.69
					c-0.088,0.862-0.01,1.756,0.266,2.629c0.663,1.635,1.497,3.048,2.47,4.272c2.4,1.136,6.008,2.678,10.492,4.093
					c8.456,2.67,7.788,1.113,10.904,2.002c1.416,0.405,2.924,1.365,4.191,2.728c0.016,0.002,0.033,0.003,0.05,0.004
					c3.438,3.221,7.94,7.286,6.822,12.552c-1.965,4.367-7.286,3.002-11.461,3.276c-2.783,0.982-5.457,2.21-7.641,4.638
					c-1.892,2.493-3.07,5.917-2.633,9.165c4.346-0.68,9.259-3.143,11.785-4.546c4.005-2.226,4.227-0.891,10.013,0
					c5.786,0.889,18.469,2.226,25.145-0.891c6.677-3.114,14.688-8.678,14.688-8.678c6.007,0.444,18.469,4.896,35.604,6.23
					c17.135,1.336,35.159-0.445,35.159-0.445c0.445,0.891,3.337,1.558,15.577,2.671s40.277,1.781,59.415,1.335
					c19.136-0.444,31.375-1.558,35.826-1.558c4.45,0,3.781,5.563,3.781,9.792c0,4.228-0.222,4.896-7.342,8.455
					c-7.121,3.56-13.796,9.346-20.695,18.915c-4.211,5.84-6.511,11.263-7.769,16.021c0.595,1.72,1.296,3.372,2.112,4.934
					c9.297,19.047,27.518,29.553,47.46,32.315c7.924-3.684,16.55-8.617,25.175-14.105c12.24-7.79,29.819-25.814,36.273-34.493
					c6.453-8.678,9.567-16.243,10.235-15.354c0.111,0.149,0.217,0.352,0.314,0.591l0.063-0.063
					c2.294,5.347,0.711,11.788-2.182,16.372c-4.51,5.622-9.403,10.979-14.597,16.022c-4.137,7.28-18.586,28.549-26.99,39.621
					c-9.124,12.017-10.683,17.802-10.683,17.802s-2.224,6.231-5.34,11.57c-3.115,5.341-7.344,9.57-9.124,19.36
					c-1.78,9.791,2.669,13.129,2.669,13.129c-0.565,4.795-0.008,8.247,0.933,10.706c1.613,0.197,3.859,0.079,5.522-1.582
					c2.894-2.893,2.002-5.34,2.226-9.348c0.224-4.005-1.113-9.122,0.668-9.568c1.779-0.443,2.894,1.112,2.894,1.112
					s3.113-2.002,3.559-13.796c0,0,8.902-8.455,13.575-17.801c4.671-9.346,6.676-12.906,6.676-12.906s5.785-6.676,12.238-16.468
					c6.453-9.791,8.456-12.906,15.132-28.037c6.675-15.132,9.123-24.255,10.012-29.597
					C467.007,323.688,465.449,319.683,466.338,319.018z"/>
			</g>
			<path style="fill:#FEE7DA;" d="M186.182,258.713c0,0,12.906-1.78,27.593-1.335s37.606,3.783,45.618,7.788
				c0,0,20.472-1.558,36.716-0.444c16.243,1.112,43.169,2.224,60.526,6.231c17.357,4.004,20.472,4.672,23.364,6.006
				c2.894,1.335,3.339-0.221,1.337-2.67c-2.004-2.447-7.789-8.232-25.813-12.238c-18.024-4.005-40.723-8.9-90.123-5.34
				c0,0-25.145-9.569-72.542-4.673c0,0-19.359-4.228-31.153,0.223c-11.793,4.451-8.457,4.896-3.783,4.228
				C162.594,255.82,177.949,252.705,186.182,258.713z"/>
		</g>
	</g>
	<g>
		<path style="fill:#FDDBCA;" d="M500.527,263.906c0.833-1.018,1.76-3.518,0.648-5.092c-1.11-1.573-3.889-3.518-2.314-5.647
			c0.657-0.89,1.608-1.293,2.63-1.362c-0.717-0.399-1.479-0.696-2.263-0.866c-2.537-0.601-5.402-0.355-7.094,1.91
			c-0.416,0.512-0.771,1.087-1.06,1.701c0.349-0.11,0.706-0.063,1.027,0.284c1.109,1.203,1.48,2.036,1.575,3.518
			c0.091,1.48,1.11,3.333,1.852,4.628c0.486,0.856,1.258,1.39,2.047,2.08c0.289,0.03,0.579,0.051,0.871,0.06
			C499.257,264.81,500.132,264.389,500.527,263.906z"/>
		<path style="fill:#FEE7DA;" d="M501.491,251.805c-1.021,0.068-1.973,0.472-2.63,1.362c-1.574,2.129,1.204,4.074,2.314,5.647
			c1.111,1.574,0.185,4.074-0.648,5.092c-0.396,0.483-1.271,0.904-2.08,1.213c2.089,0.061,4.134-0.495,5.421-2.447
			c1.638-2.018,2.128-5.184,1.092-7.64C504.051,253.676,502.85,252.557,501.491,251.805z"/>
		<path style="fill:#F1C4B0;" d="M495.529,262.98c-0.741-1.295-1.761-3.148-1.852-4.628c-0.095-1.482-0.466-2.315-1.575-3.518
			c-0.321-0.347-0.679-0.394-1.027-0.284c-0.944,2-1.161,4.418-0.306,6.486c1.584,1.855,3.384,3.11,5.459,3.82
			c0.441,0.087,0.894,0.156,1.348,0.203C496.787,264.37,496.016,263.836,495.529,262.98z"/>
	</g>
</g>
</svg>
